<svg width="100%" height="100%" viewBox="0 0 25 25" version="1.1" xmlns="http://www.w3.org/2000/svg" style="fill-rule:evenodd;clip-rule:evenodd;stroke-linejoin:round;stroke-miterlimit:2;"><path d="M12.68,0.611C6.05,0.611 0.68,5.984 0.68,12.611C0.68,17.914 4.118,22.411 8.885,23.996C9.485,24.109 9.705,23.738 9.705,23.419C9.705,23.134 9.695,22.379 9.69,21.379C6.352,22.103 5.648,19.769 5.648,19.769C5.102,18.384 4.313,18.014 4.313,18.014C3.226,17.27 4.397,17.285 4.397,17.285C5.602,17.369 6.235,18.521 6.235,18.521C7.305,20.356 9.044,19.826 9.73,19.519C9.838,18.743 10.147,18.214 10.49,17.914C7.825,17.614 5.024,16.582 5.024,11.984C5.024,10.674 5.489,9.604 6.259,8.764C6.124,8.461 5.719,7.241 6.364,5.588C6.364,5.588 7.369,5.266 9.664,6.818C10.624,6.551 11.644,6.419 12.664,6.413C13.684,6.419 14.704,6.551 15.664,6.818C17.944,5.266 18.949,5.588 18.949,5.588C19.594,7.241 19.189,8.461 19.069,8.764C19.834,9.604 20.299,10.674 20.299,11.984C20.299,16.594 17.494,17.609 14.824,17.904C15.244,18.264 15.634,19 15.634,20.124C15.634,21.73 15.619,23.02 15.619,23.41C15.619,23.725 15.829,24.1 16.444,23.98C21.245,22.406 24.68,17.906 24.68,12.611C24.68,5.984 19.307,0.611 12.68,0.611" style="fill:#dadddf;fill-rule:nonzero;"/></svg>