<?xml version="1.0" encoding="UTF-8" standalone="no"?><!DOCTYPE svg PUBLIC "-//W3C//DTD SVG 1.1//EN" "http://www.w3.org/Graphics/SVG/1.1/DTD/svg11.dtd"><svg width="100%" height="100%" viewBox="0 0 25 25" version="1.1" xmlns="http://www.w3.org/2000/svg" xmlns:xlink="http://www.w3.org/1999/xlink" xml:space="preserve" xmlns:serif="http://www.serif.com/" style="fill-rule:evenodd;clip-rule:evenodd;stroke-linejoin:round;stroke-miterlimit:2;"><path d="M21.128,20.766L17.573,20.766L17.573,15.197C17.573,13.869 17.546,12.16 15.721,12.16C13.868,12.16 13.585,13.605 13.585,15.099L13.585,20.766L10.031,20.766L10.031,9.314L13.445,9.314L13.445,10.875L13.491,10.875C13.968,9.975 15.128,9.025 16.861,9.025C20.462,9.025 21.128,11.395 21.128,14.48L21.128,20.766ZM6.017,7.747C4.873,7.747 3.954,6.821 3.954,5.682C3.954,4.544 4.874,3.619 6.017,3.619C7.157,3.619 8.081,4.544 8.081,5.682C8.081,6.821 7.156,7.747 6.017,7.747ZM7.799,20.766L4.235,20.766L4.235,9.314L7.799,9.314L7.799,20.766ZM22.905,0.314L2.451,0.314C1.472,0.314 0.68,1.088 0.68,2.043L0.68,22.585C0.68,23.541 1.472,24.314 2.451,24.314L22.902,24.314C23.88,24.314 24.68,23.541 24.68,22.585L24.68,2.043C24.68,1.088 23.88,0.314 22.902,0.314L22.905,0.314Z" style="fill:#dadddf;fill-rule:nonzero;"/></svg>