<?xml version="1.0" encoding="UTF-8" standalone="no"?><!DOCTYPE svg PUBLIC "-//W3C//DTD SVG 1.1//EN" "http://www.w3.org/Graphics/SVG/1.1/DTD/svg11.dtd"><svg width="100%" height="100%" viewBox="0 0 25 25" version="1.1" xmlns="http://www.w3.org/2000/svg" xmlns:xlink="http://www.w3.org/1999/xlink" xml:space="preserve" xmlns:serif="http://www.serif.com/" style="fill-rule:evenodd;clip-rule:evenodd;stroke-linejoin:round;stroke-miterlimit:2;"><clipPath id="_clip1"><rect x="0.68" y="0.103" width="24" height="24"/></clipPath><g clip-path="url(#_clip1)"><path d="M24.634,4.672C23.749,5.061 22.804,5.326 21.809,5.447C22.823,4.836 23.603,3.873 23.972,2.724C23.021,3.279 21.967,3.683 20.845,3.908C19.949,2.949 18.672,2.349 17.254,2.349C14.537,2.349 12.334,4.552 12.334,7.266C12.334,7.656 12.379,8.031 12.461,8.39C8.371,8.197 4.746,6.233 2.32,3.264C1.893,3.986 1.654,4.825 1.654,5.739C1.654,7.449 2.524,8.952 3.842,9.835C3.035,9.809 2.276,9.587 1.614,9.219L1.614,9.28C1.614,11.665 3.307,13.654 5.56,14.107C5.147,14.218 4.711,14.278 4.264,14.278C3.95,14.278 3.649,14.248 3.348,14.192C3.979,16.145 5.793,17.569 7.952,17.609C6.272,18.928 4.143,19.714 1.85,19.714C1.46,19.714 1.071,19.691 0.68,19.647C2.869,21.041 5.448,21.856 8.237,21.856C17.291,21.856 22.236,14.36 22.236,7.87C22.236,7.661 22.236,7.45 22.221,7.24C23.182,6.551 24.021,5.68 24.681,4.692L24.634,4.672Z" style="fill:#dadddf;fill-rule:nonzero;"/></g></svg>